<?xml version="1.0" encoding="UTF-8"?>
<svg id="Layer_2" data-name="Layer 2" xmlns="http://www.w3.org/2000/svg" viewBox="0 0 144.02 144.02">
  <defs>
    <style>
      .cls-1 {
        fill: none;
        stroke: #fff;
        stroke-miterlimit: 10;
        stroke-width: 3px;
      }

      .cls-2 {
        fill: #fff;
      }

      .cls-3 {
        fill: #ef4368;
      }
    </style>
  </defs>
  <g id="Layer_4" data-name="Layer 4">
    <circle class="cls-3" cx="72.01" cy="72.01" r="72.01"/>
    <circle class="cls-1" cx="72.01" cy="72.01" r="66.2"/>
    <g id="Layer_2-2" data-name="Layer 2">
      <g id="Layer_1-2" data-name="Layer 1-2">
        <path class="cls-2" d="m25.35,54.88c0-6.06,1.69-10.79,5.08-14.18,3.38-3.39,8.1-5.08,14.14-5.08,6.19,0,10.96,1.66,14.29,4.99,3.34,3.32,5.02,7.98,5.04,13.97,0,4.35-.73,7.91-2.19,10.7-1.43,2.74-3.64,5-6.35,6.5-2.77,1.55-6.22,2.32-10.34,2.32-4.2,0-7.66-.67-10.39-2.01-2.82-1.39-5.16-3.6-6.71-6.35-1.71-2.89-2.56-6.51-2.56-10.86Zm11.49.05c0,3.75.7,6.45,2.1,8.09,1.4,1.64,3.3,2.47,5.7,2.48,2.47,0,4.38-.8,5.73-2.41,1.35-1.61,2.03-4.49,2.03-8.66,0-3.51-.71-6.07-2.12-7.68-1.41-1.61-3.33-2.42-5.75-2.43-2.14-.08-4.2.83-5.58,2.46-1.41,1.64-2.11,4.36-2.11,8.15Z"/>
        <path class="cls-2" d="m68.59,36.89h15.12l5.83,22.64,5.79-22.64h15.11v37.2h-9.41v-28.37l-7.25,28.37h-8.53l-7.24-28.37v28.37h-9.42v-37.2Z"/>
        <path class="cls-2" d="m69.49,98.88c0-6.31,1.76-11.22,5.28-14.73,3.52-3.51,8.41-5.27,14.68-5.28,6.43,0,11.39,1.73,14.87,5.2,3.48,3.46,5.21,8.3,5.2,14.51,0,4.52-.76,8.22-2.28,11.11-1.48,2.85-3.78,5.2-6.59,6.75-2.87,1.61-6.45,2.41-10.74,2.41-4.36,0-7.97-.69-10.83-2.08-2.92-1.45-5.33-3.75-6.93-6.59-1.77-3.02-2.66-6.78-2.66-11.3Zm11.95.05c0,3.9.72,6.7,2.17,8.41s3.42,2.56,5.92,2.56,4.56-.84,5.96-2.51c1.4-1.67,2.11-4.66,2.12-8.98,0-3.64-.73-6.3-2.2-7.98-1.47-1.68-3.46-2.52-5.97-2.52-2.22-.08-4.36.86-5.8,2.56-1.46,1.7-2.19,4.52-2.19,8.45Z"/>
      </g>
    </g>
  </g>
</svg>