<?xml version="1.0" encoding="UTF-8"?>
<svg id="Layer_2" data-name="Layer 2" xmlns="http://www.w3.org/2000/svg" viewBox="0 0 144.02 144.02">
  <defs>
    <style>
      .cls-1 {
        fill: none;
        stroke-width: 3px;
      }

      .cls-1, .cls-2 {
        stroke: #fff;
        stroke-miterlimit: 10;
      }

      .cls-3 {
        fill: #ef4368;
      }

      .cls-2 {
        fill: #fff;
        stroke-width: .5px;
      }
    </style>
  </defs>
  <g id="Layer_4" data-name="Layer 4">
    <circle class="cls-3" cx="72.01" cy="72.01" r="72.01"/>
    <circle class="cls-1" cx="72.01" cy="72.01" r="66.2"/>
    <path class="cls-2" d="m134.71,93.76c-.52,2.61-3.87,3.23-12.24,4.62-6.63,1.1-13.12,1.65-19.6.87-6.49-.77-11.86-2.9-16.12-6.39-3.29,4.65-7.36,9.1-12.2,13.36-1.36,1.16-2.86,2.23-4.5,3.19-1.65.97-3.34,1.6-5.08,1.89-1.74.29-3.44.14-5.08-.44-1.65-.58-3.15-1.74-4.5-3.49-1.55-2.13-2.61-4.5-3.19-7.11-.58-2.61-.68-5.27-.29-7.99-1.16,2.13-2.42,4.12-3.78,5.95-1.36,1.84-2.86,3.34-4.5,4.5-1.65,1.16-3.34,1.7-5.08,1.6-1.74-.1-3.58-1.11-5.52-3.05-2.32-2.32-3.53-5.37-3.63-9.15-.1-3.78.44-7.6,1.6-11.47,1.16-3.87,2.76-7.5,4.79-10.89,2.03-3.39,4.21-5.95,6.53-7.7.58-.39,1.16-.34,1.74.15.58.49.77,1.12.58,1.89-.97,4.07-2.28,7.99-3.92,11.76-1.65,3.78-2.76,7.89-3.34,12.34,0,.58-.1,1.45-.29,2.61-.2,1.16-.29,2.37-.29,3.63s.1,2.42.29,3.48c.19,1.07.68,1.7,1.45,1.89,1.55.39,3.09.2,4.65-.58,1.55-.77,2.8-1.64,3.78-2.61.97-1.35,1.93-2.66,2.9-3.92.97-1.26,1.84-2.66,2.61-4.21.97-3.29,1.93-5.9,2.9-7.84.77-1.16,1.79-1.45,3.05-.87,1.26.58,1.69,1.55,1.31,2.9-.78,2.71-1.31,5.42-1.6,8.13-.29,2.71-.25,5.42.14,8.13.58,3.49,2.47,5.71,5.66,6.68,3.19.97,6.43-.19,9.73-3.48,2.13-1.74,4.07-3.63,5.81-5.66,1.74-2.03,3.38-4.11,4.94-6.24-2.13-2.9-3.68-6.14-4.65-9.73-.97-3.58-1.45-7.31-1.45-11.18s.44-7.7,1.31-11.47c.87-3.78,1.98-7.21,3.34-10.31.77-1.74,1.74-3.63,2.9-5.66,1.16-2.03,2.47-3.92,3.92-5.66,1.45-1.74,3.09-3.19,4.94-4.36,1.84-1.16,3.92-1.64,6.24-1.45,2.32.2,4.02.87,5.08,2.03,1.06,1.16,1.74,2.57,2.03,4.21.29,1.65.34,3.44.15,5.37-.2,1.94-.49,3.68-.87,5.23-1.55,7.36-3.73,14.52-6.53,21.49-2.81,6.97-6.44,13.55-10.89,19.75,3.29,3.68,7.84,5.81,13.65,6.39,4.07.58,8.37.68,12.92.29,4.55-.39,9.05-1.16,13.5-2.32,4.45-1.16,5.34-2.33,4.69.9Zm-42.73-53.75c-2.13,3.1-3.97,6.53-5.52,10.31-1.55,3.78-2.61,7.7-3.19,11.76-.58,4.07-.54,8.09.14,12.05.68,3.97,2.08,7.8,4.21,11.47.58-.77,1.11-1.55,1.6-2.32.48-.77,1.02-1.55,1.6-2.32,4.84-8.32,8.52-16.94,11.04-25.85.77-2.71,1.31-5.71,1.6-9,.29-3.29.1-6-.58-8.13-.68-2.13-1.89-3.24-3.63-3.34-1.74-.1-4.17,1.7-7.26,5.37Z"/>
  </g>
</svg>