<?xml version="1.0" encoding="UTF-8"?>
<svg id="Layer_2" data-name="Layer 2" xmlns="http://www.w3.org/2000/svg" viewBox="0 0 144.02 144.02">
  <defs>
    <style>
      .cls-1 {
        stroke-miterlimit: 10;
        stroke-width: 3px;
      }

      .cls-1, .cls-2 {
        fill: none;
        stroke: #fff;
      }

      .cls-3 {
        fill: #ef4368;
      }

      .cls-2 {
        stroke-linecap: round;
        stroke-linejoin: round;
        stroke-width: 4px;
      }
    </style>
  </defs>
  <g id="Layer_4" data-name="Layer 4">
    <circle class="cls-3" cx="72.01" cy="72.01" r="72.01"/>
    <polyline class="cls-2" points="34.43 67.66 34.43 108.02 109.16 108.02 109.16 67.83"/>
    <polyline class="cls-2" points="41.63 68.98 41.63 95.17 102.12 95.17 102.12 68.86"/>
    <path class="cls-2" d="m94.24,49.49H31.2v12.31s1.37,7.56,7.34,7.64,8.31-3.32,8.79-7.73c0-.07.09-.08.1-.02.31,1.59,1.86,7.51,7.89,7.6,0,0,7.07.92,8.25-7.75.01-.1.15-.13.17-.03.32,2.09,1.78,8.07,8.02,7.93,6.56-.15,7.99-5.51,8.25-7.66.01-.11.17-.12.19,0,.45,1.99,2.16,7.43,7.45,7.51,6,.09,8.46-3.86,8.69-7.61,0-.12.18-.13.21-.02.57,2.2,2.57,7.85,7.89,7.63,6.59-.27,8.54-6.06,8.37-9.32-.17-3.26,0-10.47,0-10.47h-18.57"/>
    <path class="cls-2" d="m31.2,48.86l9.32-18.37s1.24-1.49,3.83-1.62,55,0,55,0c0,0,2.8-.25,4.4,2.86s8.89,17.12,8.89,17.12"/>
    <circle class="cls-1" cx="72.01" cy="72.01" r="66.2"/>
  </g>
</svg>